<svg xmlns="http://www.w3.org/2000/svg" width="1142" height="202" fill="none"><path fill="#fff" fill-opacity=".8" d="M0 64.99a48.448 48.448 0 0 0 25.712 8.79c14.258 0 19.172-8.617 19.172-25.574V15.123C44.988 7.336 43.292 2.699 38.24 0h30.038c-5.122 2.838-6.61 7.475-6.61 15.123v33.326c0 25.712-9.378 37.72-33.914 37.72-10.624 0-18.064-2.7-22.494-2.7A12.32 12.32 0 0 0 0 84.89V64.99Zm167.424 9.275c-12.216 0-19.31-7.198-19.31-19.83 0-13.842 7.544-22.01 20.764-22.01 12.216 0 19.414 7.233 19.414 20.038 0 13.842-7.648 21.802-21.006 21.802M204.28 53.5c0-20.245-13.116-32.184-36.198-32.184-22.39 0-35.956 13.393-35.956 32.91 0 19.519 13.012 31.492 35.956 31.492 22.251 0 36.094-13.635 36.094-32.218m165.382 15.434c0 7.648 1.696 12.32 6.61 15.158h-28.1c4.914-2.838 6.644-7.51 6.644-15.158V15.123c0-7.787-1.73-12.424-6.644-15.123h34.606a5.703 5.703 0 0 0-.796 2.7 8.623 8.623 0 0 0 .796 3.08l25.678 63.052L434.514 5.64c.387-.84.621-1.743.692-2.665a6.927 6.927 0 0 0-.9-2.976h35.264c-4.914 2.7-6.61 7.336-6.61 15.123v53.812c0 6.921 1.038 11.213 6.056 15.158h-28.204c5.122-4.118 6.056-8.34 6.056-15.158V12.424l-29 66.27a7.301 7.301 0 0 0-.83 2.838c.085.904.369 1.778.83 2.56H397.97a10.41 10.41 0 0 0 .692-2.249 9.883 9.883 0 0 0-.935-3.46l-28.169-67.344v57.896Zm191.06-8.686 12.458-28.723L586.33 60.25h-25.712Zm46.58 12.735-20.21-45.3a7.202 7.202 0 0 1-.9-2.802 7.2 7.2 0 0 1 .762-2.25h-25.436a7.72 7.72 0 0 1 .658 2.146 7.895 7.895 0 0 1-.9 2.907L539.37 73.019a39.625 39.625 0 0 1-7.198 11.074h23.636a6.926 6.926 0 0 1-2.388-5.71c.005-1.368.239-2.724.692-4.015l1.35-3.01h35.402l1.73 4.014a9.308 9.308 0 0 1 .796 3.737 7.16 7.16 0 0 1-2.284 4.984h23.29a39.1 39.1 0 0 1-7.198-11.074m69.662-50.387h25.643a10.382 10.382 0 0 0-5.398 10.382v40.524h17.303a36.095 36.095 0 0 0 24.224-7.337 126.723 126.723 0 0 0-5.849 15.227 5.407 5.407 0 0 0 1.142 2.665h-57.1c3.669-1.661 5.26-5.087 5.26-10.382V33.187c0-5.606-1.591-8.893-5.26-10.382m156.835 51.46c-12.216 0-19.31-7.198-19.31-19.83 0-13.842 7.544-22.01 20.763-22.01 12.216 0 19.449 7.233 19.449 20.038 0 13.842-7.682 21.802-21.04 21.802M870.515 53.5c0-20.245-13.115-32.184-36.197-32.184-22.356 0-35.991 13.393-35.991 32.91 0 19.519 13.047 31.492 35.991 31.492 22.39 0 36.197-13.635 36.197-32.218Zm82.467 19.83c0 5.675 1.28 8.858 5.26 10.762h-24.224c3.668-1.661 5.121-5.087 5.121-10.763V33.36c0-5.64-1.453-9.066-5.121-10.728h30.003c-.32.46-.511.998-.554 1.558a5.85 5.85 0 0 0 .796 2.249l24.017 46.545-.242-39.485c0-5.641-1.8-9.17-5.364-10.728h23.666c-4.94 2.353-5.05 5.883-5.05 10.382v45.645a7.264 7.264 0 0 0 1.52 5.295h-24.67a3.45 3.45 0 0 0 .692-1.904 4.623 4.623 0 0 0-.796-2.007l-26.058-47.86 1.004 41.008Zm124.168.207V33.153c0-5.572-1.49-8.86-5.16-10.382h64.4a4.476 4.476 0 0 0-1 2.491c0 1.212 1.7 5.468 3.88 13.324a40.936 40.936 0 0 0-22.6-5.295h-24.43v14.362h27.02c2.83.002 5.63-.55 8.24-1.627l-5.12 8.652a7.13 7.13 0 0 1-2.73 2.608 7.092 7.092 0 0 1-3.67.852h-23.74v15.47h25.78a36.292 36.292 0 0 0 23.98-7.545 119.619 119.619 0 0 0-5.81 15.192c.12.982.5 1.913 1.1 2.7h-65.3c3.67-1.593 5.16-4.984 5.16-10.382m-662.085 91.533h12.666c-2.042 1.038-2.838 3.079-2.838 6.263v24.224h11.143a23.5 23.5 0 0 0 14.016-3.46 42.154 42.154 0 0 0-2.388 6.437c.028.715.144 1.424.346 2.111h-32.737a6.513 6.513 0 0 0 2.768-6.299v-23.013c0-3.218-.83-5.225-2.768-6.263m73.572 31.422a7.442 7.442 0 0 1-8.132-8.34 8.162 8.162 0 0 1 1.562-6.03 8.16 8.16 0 0 1 5.359-3.175 8.035 8.035 0 0 1 1.834 0 7.509 7.509 0 0 1 8.133 6.921 7.942 7.942 0 0 1 0 1.557 8.208 8.208 0 0 1-1.6 5.978 8.207 8.207 0 0 1-5.322 3.158 9.612 9.612 0 0 1-1.73 0m15.504-8.79c0-8.513-5.468-13.565-15.158-13.565s-15.192 5.71-15.192 13.773c0 8.063 5.468 13.254 15.192 13.254s15.158-5.745 15.158-13.6m32.91 8.478c0 2.388.484 3.738 2.18 4.534h-10.07c1.488-.727 2.18-2.146 2.18-4.534v-16.818c0-2.388-.692-3.807-2.18-4.534h12.562a2.063 2.063 0 0 0-.208.658c.048.343.166.673.346.969l10.14 19.483v-16.576a4.434 4.434 0 0 0-2.284-4.534h9.932c-2.042 1.004-2.042 2.492-2.042 4.43v19.206c-.066.79.129 1.58.554 2.25h-10.382c.178-.234.297-.507.346-.796a2.68 2.68 0 0 0-.346-.866l-10.97-20.14.242 17.268Zm56.408.069v-16.991h4.36c7.302 0 10.59 2.111 10.59 8.513 0 6.402-3.115 8.478-10.036 8.478h-4.949m6.091-21.421h-14.638c1.591.727 2.18 2.146 2.18 4.534v16.818c0 2.388-.589 3.807-2.18 4.534h14.742c9.724 0 15.538-5.088 15.538-13.012 0-7.925-5.364-12.874-15.642-12.874Zm56.2 21.733a7.548 7.548 0 0 1-8.132-6.921 7.116 7.116 0 0 1 0-1.488 8.166 8.166 0 0 1 6.921-9.206 8.463 8.463 0 0 1 1.869 0 7.507 7.507 0 0 1 7.338 4.08c.45.885.72 1.851.794 2.842a7.79 7.79 0 0 1 0 1.557 8.204 8.204 0 0 1-7.302 9.101 8.334 8.334 0 0 1-1.626 0m15.538-8.79c0-8.513-5.503-13.565-15.192-13.565-9.69 0-15.192 5.675-15.192 13.842 0 8.167 5.467 13.254 15.192 13.254 9.724 0 15.192-5.744 15.192-13.6m33.152 8.513c0 2.388.45 3.738 2.146 4.534h-10.174c1.522-.727 2.215-2.146 2.215-4.534v-16.818c0-2.388-.693-3.807-2.215-4.534h12.562a2.063 2.063 0 0 0-.208.658c.035.341.141.671.312.969l10.07 19.483v-16.576a4.433 4.433 0 0 0-2.249-4.534h9.897c-2.042 1.004-2.042 2.492-2.042 4.43v19.206c-.066.79.129 1.58.554 2.25h-10.382c.179-.234.297-.507.346-.796a2.68 2.68 0 0 0-.346-.866l-10.97-20.14.484 17.268Z"/></svg>